<svg xmlns="http://www.w3.org/2000/svg" viewBox="0 0 128 128"><path fill="#00599C" d="M116.3 11.7l-9.1 26.6-4.8 2.3c-2 .9-12.7 6.4-18.9 6.4-16.1 0-25.2-12.2-25.2-25.9C58.3 8.3 69 0 84.1 0c8.8 0 16.5 2.1 23.3 5.4l1.3.6-4.5 28.5-7.9-3.9zM36.7 128l9.1-26.6 4.8-2.3c2-.9 12.7-6.4 18.9-6.4 16.1 0 25.2 12.2 25.2 25.9 0 12.8-10.7 21.1-25.8 21.1-8.8 0-16.5-2.1-23.3-5.4l-1.3-.6 4.5-28.5 7.9 3.9z"/><path fill="#044F88" d="M64 64c0 10.7 4 19.8 11.2 25.5-2.6-1.5-6.6-4.1-10.7-9.4L64 64zm0 0c0-10.7-4-19.8-11.2-25.5 2.6 1.5 6.6 4.1 10.7 9.4L64 64z"/><text x="64" y="85" font-size="70" text-anchor="middle" fill="#FFFFFF" font-family="sans-serif" font-weight="bold">C</text></svg>
