<svg xmlns="http://www.w3.org/2000/svg" viewBox="0 0 128 128"><path fill="#00599C" d="M117.5 33.5l-5.6 16.2H128l5.6-16.2h-16.1zM114.1 19.4l4.1-11.8H99.4l-4.1 11.8h18.8zM128 66H94.9l-5.8 16.7H128V66zM76.7 54.4c-4.4-3.6-11.1-5.6-18.8-5.6-20.1 0-33.6 15.3-33.6 34.1 0 19.3 13.7 32.8 33.6 32.8 8.1 0 15.1-2.2 19.6-5.8l6.7-19.3-8.8 25.4C71.3 118 64.9 120 57.9 120c-26.5 0-46-17.7-46-44.5 0-26.3 19-45.7 46-45.7 7.5 0 14.3 2.1 18.2 4.1l6.7-19.3-6.1 19.8z"/><text x="64" y="85" font-size="45" text-anchor="middle" fill="#00599C" font-family="sans-serif" font-weight="bold">C++</text></svg>
