<svg xmlns="http://www.w3.org/2000/svg" viewBox="0 0 128 128"><path fill="#68217A" d="M64 0C28.7 0 0 28.7 0 64s28.7 64 64 64 64-28.7 64-64S99.3 0 64 0zm27.4 87.4l-6.8 6.8c-3.1 3.1-8.2 3.1-11.3 0l-3.2-3.2c-3.1-3.1-3.1-8.2 0-11.3l6.8-6.8c3.1-3.1 3.1-8.2 0-11.3L70.1 54.8c-3.1-3.1-8.2-3.1-11.3 0l-6.8 6.8c-3.1 3.1-8.2 3.1-11.3 0L37.5 58.4c-3.1-3.1-3.1-8.2 0-11.3l6.8-6.8c3.1-3.1 8.2-3.1 11.3 0l6.8 6.8c3.1 3.1 8.2 3.1 11.3 0l3.2-3.2c3.1-3.1 3.1-8.2 0-11.3l-6.8-6.8c-3.1-3.1-8.2-3.1-11.3 0L39.8 44.8c-12.5 12.5-12.5 32.8 0 45.3l19.1 19.1c12.5 12.5 32.8 12.5 45.3 0l6.8-6.8c3.1-3.1 3.1-8.2 0-11.3l-3.2-3.2c-3.1-3.1-8.2-3.1-11.3 0z"/><text x="45" y="85" font-size="50" text-anchor="middle" fill="#FFFFFF" font-family="sans-serif" font-weight="bold">C#</text></svg>
