<svg xmlns="http://www.w3.org/2000/svg" viewBox="0 0 128 128"><path fill="#F0DB4F" d="M0 0h128v128H0z"/><path fill="#323330" d="M89.4 96c-5.7 6.1-13.6 5.2-17.7 2.2l-4.1 7.2c3.5 3 10.3 5.7 18.5 2.7 12.1-4.3 13-17.4 8-22.8-2.6-2.9-7.3-5-13.1-7.5-6.2-2.6-7.8-5.3-7.5-8 .5-4.4 6.7-6 10.8-4.5 4 .9 6.8 3 8.8 5.4l5.2-6.5c-3-3.7-8.1-7.2-16.1-7.9-10.9-1-18.7 6-18.3 14.8.4 9 9.1 12.7 15.6 15.1 7.2 2.6 7.5 7.4 7.2 9.5-.4 2.7-2.6 5.8-9 5.6-5.8-.2-9.2-3-11.1-5.1l-5.6 6.8c3.2 3.6 9.4 8.7 18.2 8.9zM55.8 45.3H40.7v58.2h15.1V45.3z"/></svg>
