<svg xmlns="http://www.w3.org/2000/svg" viewBox="0 0 128 128"><path fill="#3776AB" d="M64 11.7c15.8 0 28.9 3.5 28.9 14.7 0 8.6-8.2 11.3-17 11.4h-2.5v7h15.5c22.1 0 26.6 9.8 26.6 22.1 0 11.8-6.5 19.1-19.1 19.1H85V97c0 14-11.5 25.3-25.5 25.3S34 111 34 97V76.9h-8.5c-12.6 0-19.1-7.3-19.1-19.1 0-12.3 4.5-22.1 26.6-22.1h15.5v-7h-2.5c-8.8-.1-17-2.8-17-11.4 0-11.2 13.1-14.7 28.9-14.7h6.1zm-8.8 8.4c-3.3 0-5.9 2.7-5.9 5.9s2.7 5.9 5.9 5.9 5.9-2.7 5.9-5.9-2.7-5.9-5.9-5.9zm17.6 77.2c3.3 0 5.9 2.7 5.9 5.9s-2.7 5.9-5.9 5.9-5.9-2.7-5.9-5.9 2.6-5.9 5.9-5.9z"/><path fill="#FFD43B" d="M64 116.3c14 0 25.5-11.3 25.5-25.3V78.9H98c11.8 0 21.6-4.6 21.6-22.1 0-12.6-6.5-19.1-19.1-19.1H85V24c0-14-11.3-25.5-25.3-25.5h-5.9c-15.8 0-28.9-3.5-28.9-14.7 0-8.6 8.2-11.3 17-11.4h2.5v-7H28.9c-22.1 0-26.6-9.8-26.6-22.1 0-11.8 6.5-19.1 19.1-19.1H34V31c0-14 11.5-25.3 25.5-25.3s25.5 11.3 25.5 25.3v19h8.5c12.6 0 19.1 7.3 19.1 19.1 0 12.3-4.5 22.1-26.6 22.1H70.9v7h2.5c8.8.1 17 2.8 17 11.4 0 11.2-13.1 14.7-28.9 14.7H58.1zM81.6 20.1c3.3 0 5.9-2.7 5.9-5.9s-2.7-5.9-5.9-5.9-5.9 2.7-5.9 5.9 2.7 5.9 5.9 5.9zM46.4 97.4c-3.3 0-5.9-2.7-5.9-5.9s2.7-5.9 5.9-5.9 5.9 2.7 5.9 5.9-2.7 5.9-5.9 5.9z"/></svg>
